<svg fill="#fff" height="512" viewBox="0 0 60 60" width="512" xmlns="http://www.w3.org/2000/svg"><g id="027---Lion-Flag"><path id="Shape" d="m37.836 23.6-1.212-.693c-1.8541282-1.0539662-4.0929139-1.1858987-6.058-.357-.3118352.154329-.6733591.1738513-1 .054-1.9917718-.9035355-4.296904-.7918527-6.192.3l-1.212.693c-1.9557165 1.123409-3.1616883 3.2065899-3.162 5.462v2.815c.0008991 2.5847314 1.5897943 4.9033267 4 5.837-.1110436 1.4022849.7547845 2.6975108 2.093 3.131.3964543 1.841197 2.0236042 3.1564105 3.907 3.158h2c1.8859641-.0012555 3.5148338-1.3196857 3.909-3.164 1.3317081-.437581 2.1941182-1.7260406 2.091-3.124 2.4103625-.9340373 3.999231-3.2529908 4-5.838v-2.815c-.0017967-2.2547515-1.2084426-4.3366352-3.164-5.459zm-6.836 18.4h-2c-.818526-.0017424-1.5533744-.5020731-1.855-1.263.422-.179-.517.343 2.855-1.585 3.393 1.939 2.492 1.435 2.854 1.59-.3030784.7586246-1.0370753 1.2566656-1.854 1.258zm-1.965-6.815c.6186195-.2450331 1.3073805-.2450331 1.926 0-.1772853.6624822-.5062942 1.2746236-.961 1.788-.4548876-.5138588-.7851147-1.12572-.965-1.788zm9.965-3.311c.0005894 1.470408-.7548891 2.8378242-2 3.62v-.494c0-.5522847-.4477153-1-1-1s-1 .4477153-1 1v2.9c.0262714.3511114-.1318377.6906411-.4174764.8965049-.2856387.2058639-.6577459.2484687-.9825236.1124951l-1.766-1.009c.633569-.8491995 1.0353877-1.8485772 1.166-2.9v-3.184c1.2301062.432617 2.5987386.0190474 3.3834184-1.0223921.7846798-1.0414396.8048049-2.4710513.0497517-3.5341662-.7550532-1.063115-2.1115017-1.5150465-3.3532982-1.1172273s-2.0831291 1.553827-2.0798719 2.8577856v4.11c-.6586163-.1465184-1.3413837-.1465184-2 0v-4.11c.0054219-1.3079129-.8371268-2.4686033-2.0823668-2.8686569-1.24524-.4000537-2.6061469.0527407-3.3634939 1.1190853-.7573471 1.0663447-.7365679 2.5004502.0513559 3.544405.7879239 1.0439548 2.1613781 1.4571301 3.3945048 1.0211666v3.184c.1306123 1.0514228.532431 2.0508005 1.166 2.9l-1.735.993c-.3250542.1509649-.7057948.11817-1.0002462-.0861558s-.4584165-.5495132-.4307538-.9068442v-2.9c0-.5522847-.4477153-1-1-1s-1 .4477153-1 1v.493c-1.2449525-.7818517-2.0004356-2.1488985-2-3.619v-2.815c.0013939-1.5364172.8235688-2.955012 2.156-3.72 1.424-.814 3.1-2.02 5.6-.906.8334682.3538214 1.777519.3396607 2.6-.039 1.3888494-.5865085 2.9715327-.493366 4.282.252l1.212.693c1.3301213.7665161 2.1498414 2.1848226 2.15 3.72zm-6-2.874c0-.5522847.4477153-1 1-1s1 .4477153 1 1-.4477153 1-1 1-1-.4477153-1-1zm-6 0c0 .5522847-.4477153 1-1 1s-1-.4477153-1-1 .4477153-1 1-1 1 .4477153 1 1z"/><path id="Shape" d="m39.158 19.244c.094679-.231134.245577-.4349665.439-.593.4808419-.4016464.6614042-1.0598376.4528154-1.6506163-.2085887-.5907787-.7623856-.9896865-1.3888154-1.0003837-2.52-.032-6.006.274-8.661 1.938-2.656-1.664-6.148-1.976-8.66-1.938-.6251069.0117279-1.1773815.4099559-1.3859436.9993608-.208562.5894049-.0296658 1.2463591.4489436 1.6486392.193423.1580335.344321.361866.439.593-3.3658393.5645752-5.8339282 3.4741486-5.842 6.887v11.939c.0003176.4935593.243413.9553772.6501034 1.2350268.4066904.2796495.9249235.3413385 1.3858966.1649732.0420033 2.0669263.510812 4.1028567 1.377 5.98.2679229.5245747.8172473.844631 1.4057247.8190263.5884775-.0256046 1.1079272-.3921634 1.3292753-.9380263.136151-.307453.3315377-.585072.575-.817 2.831 4.145 7.177 6.489 8.277 6.489s5.4-2.281 8.278-6.492c.2437621.2318885.4394841.509501.576.817.2183556.5487846.7384287.9183485 1.3284999.9440319.5900712.0256835 1.1402879-.2972951 1.4055001-.8250319.8663525-1.8770871 1.3351692-3.9130523 1.377-5.98.4603641.175758.9776899.1141934 1.3839482-.1646974.4062584-.2788909.6496243-.7395309.6510518-1.2323026v-11.939c-.0095319-3.4117164-2.4772756-6.3196157-5.842-6.884zm3.842 18.036c-.4557075-.1614045-.961273-.093276-1.358.183-.3937477.2747767-.6338166.7200358-.647 1.2.0004368 1.6951159-.2730898 3.3791613-.81 4.987-.3204286-.4243933-.7034643-.7976507-1.136-1.107-.3350908-.2426097-.7555023-.3360553-1.1618148-.2582387-.4063126.0778166-.7624474.3199857-.9841852.6692387-1.6779475 2.6195118-4.0728675 4.702051-6.9 6-2.8271325-1.297949-5.2220525-3.3804882-6.9-6-.2214174-.3489799-.5770137-.5911397-.9828475-.6693157-.4058339-.0781761-.8259413.0145595-1.1611525.2563157-.4331842.310049-.8168747.6839618-1.138 1.109-.5373512-1.6073855-.8108909-3.2911744-.81-4.986-.0115665-.4831147-.2541189-.9313771-.6522069-1.2053472-.3980879-.27397-.9034161-.3404101-1.3587931-.1786528v-11.152c.0077216-2.7548232 2.2451687-4.982873 5-4.979.5522847 0 1-.4477153 1-1 .0182318-.7485724-.1703492-1.4876715-.545-2.136 2.3540386-.0168345 4.6699678.5945101 6.709 1.771.5037765.3455373 1.1682235.3455373 1.672 0 .164 0 1.744-1.6 6.709-1.77-.3744723.6480367-.563047 1.3867651-.545 2.135 0 .5522847.4477153 1 1 1 2.7548313-.003873 4.9922784 2.2241768 5 4.979z"/><path id="Shape" d="m59 5h-2v-2c0-1.65685425-1.3431458-3-3-3s-3 1.34314575-3 3h-2c0-1.1045695-.8954305-2-2-2h-4c-1.1045695 0-2 .8954305-2 2h-7c0-1.1045695-.8954305-2-2-2h-4c-1.1045695 0-2 .8954305-2 2h-7c0-1.1045695-.8954305-2-2-2h-4c-1.1045695 0-2 .8954305-2 2h-2c0-1.65685425-1.34314575-3-3-3s-3 1.34314575-3 3v2h-2c-.55228475 0-1 .44771525-1 1s.44771525 1 1 1h2v2c0 1.6568542 1.34314575 3 3 3s3-1.3431458 3-3h2v36.263c-.0023184 1.6724016.8339719 3.2345783 2.227 4.16l15.109 10.077c1.006997.6738698 2.321003.6738698 3.328 0l15.109-10.077c1.3930281-.9254217 2.2293184-2.4875984 2.227-4.16v-36.263h2c0 1.6568542 1.3431458 3 3 3s3-1.3431458 3-3v-2h2c.5522847 0 1-.44771525 1-1s-.4477153-1-1-1zm-52 4c0 .55228475-.44771525 1-1 1s-1-.44771525-1-1v-6c0-.55228475.44771525-1 1-1s1 .44771525 1 1zm4-2h-2v-2h2zm23-2h7v2h-7zm0 4h7v2c0 .5522847-.4477153 1-1 1h-5c-.5522847 0-1-.4477153-1-1zm-15-4h7v2h-7zm0 4h7v2c0 .5522847-.4477153 1-1 1h-5c-.5522847 0-1-.4477153-1-1zm28 36.263c.0028877 1.0048465-.4989924 1.9439935-1.336 2.5l-15.109 10.069c-.3360369.2241995-.7739631.2241995-1.11 0l-15.109-10.073c-.8358232-.555224-1.3375436-1.49257-1.336-2.496l-.0000036-42.263h4.0000036v8c0 1.6568542 1.3431458 3 3 3h5c1.6568542 0 3-1.3431458 3-3v-8h4v8c0 .7956495.3160705 1.5587112.8786797 2.1213203.5626091.5626092 1.3256708.8786797 2.1213203.8786797h5c1.6568542 0 3-1.3431458 3-3v-8h4.0000124zm4-38.263h-2v-2h2zm4 2c0 .55228475-.4477153 1-1 1s-1-.44771525-1-1v-6c0-.55228475.4477153-1 1-1s1 .44771525 1 1z"/></g></svg>